<svg width="102" height="42" viewBox="0 0 102 42" fill="none" xmlns="http://www.w3.org/2000/svg">
<path fill-rule="evenodd" clip-rule="evenodd" d="M58.305 41.3794H60.4515L64.3687 16.6069L68.5618 41.3794H76.1205L81.2515 16.6069L82.9618 41.3794H90.9067L88.0929 0.772415H80.148L74.1894 29.8483L69.2791 0.772415C68.0981 0.359093 66.9054 0.111649 65.7008 0.0300817L65.71 0.000535646L64.9292 0.000535763C64.8895 0.000178588 64.8498 0 64.8101 0C64.7698 0 64.7295 0.000178577 64.6892 0.00053573L46.2139 0.000535704C46.5808 0.00380904 46.9326 0.0220234 47.2692 0.0551788C47.68 0.0551788 48.0721 0.0735715 48.4456 0.110357L56.4564 19.9194L61.8343 0.27589H65.5316L59.1126 21.6944L58.305 26.864V41.3794ZM49.3419 41.3799V24.3889L40.883 3.69695C38.9036 4.46945 37.3911 5.68338 36.3454 7.33873C35.2997 8.99408 34.7768 10.9621 34.7768 13.2428C34.7768 14.42 34.8515 15.3764 35.0009 16.1121C35.1876 16.811 35.3744 17.3996 35.5611 17.8778C35.7852 18.356 36.0093 18.7239 36.2333 18.9814C36.4574 19.2389 36.6255 19.478 36.7375 19.6987C34.4967 19.6987 32.7228 19.2021 31.4157 18.2089C30.1085 17.1789 29.455 15.45 29.455 13.0221C29.455 11.2564 29.9218 9.60105 30.8555 8.05605C31.7891 6.47427 33.0215 5.09481 34.5527 3.91767C36.1213 2.70374 37.8952 1.74732 39.8746 1.04839C41.8456 0.365292 43.8702 0.0160078 45.9482 0.000535702L5.93984 0.000535646C3.92835 0.255957 -0.0755441 1.8013 0.00108434 5.93924C0.0777128 10.0772 0.0330001 28.0977 0.00108434 36.5906C0.064935 38.187 1.16973 41.3799 5.07778 41.3799H49.3419Z" fill="black"/>
<path fill-rule="evenodd" clip-rule="evenodd" d="M27.8139 16.5517H19.7035V0.110345C19.3357 0.0735634 18.9495 0.0551721 18.5449 0.0551721C18.1771 0.0183905 17.7909 0 17.3863 0C15.2897 0 13.2484 0.349426 11.2621 1.04828C9.31272 1.74713 7.56559 2.70345 6.02076 3.91725C4.51271 5.09426 3.29892 6.47357 2.37937 8.05518C1.45983 9.60001 1.00006 11.2552 1.00006 13.0207C1.00006 15.4483 1.64374 17.177 2.9311 18.2069C4.21846 19.2 5.96558 19.6966 8.17248 19.6966C8.06214 19.4759 7.89662 19.2368 7.67593 18.9793C7.45524 18.7219 7.23455 18.354 7.01386 17.8759C6.82995 17.3977 6.64605 16.8092 6.46214 16.1104C6.31501 15.3747 6.24145 14.4184 6.24145 13.2414C6.24145 11.0345 6.71961 9.15863 7.67593 7.6138C8.63226 6.03219 9.99318 4.8184 11.7587 3.97242V41.3794H19.7035V20.6345H27.8139V41.3794H35.7587V19.6674C33.9714 19.5478 32.5242 19.061 31.417 18.2069C30.1297 17.177 29.486 15.4483 29.486 13.0207C29.486 11.2552 29.9458 9.60001 30.8653 8.05518C31.7849 6.47357 32.9987 5.09426 34.5067 3.91725C34.9102 3.60018 35.3276 3.30069 35.7587 3.01876V0.110345H27.8139V16.5517ZM35.7587 8.27769C35.0712 9.72354 34.7274 11.3781 34.7274 13.2414C34.7274 14.4184 34.801 15.3747 34.9481 16.1104C35.132 16.8092 35.3159 17.3977 35.4998 17.8759C35.5861 18.0629 35.6724 18.233 35.7587 18.3862V8.27769Z" fill="#D232E0"/>
<circle cx="98.0197" cy="37.7958" r="3.52335" fill="#D232E0"/>
</svg>
